<svg width="1728" height="1117" viewBox="0 0 1728 1117" fill="none" xmlns="http://www.w3.org/2000/svg">
<g clip-path="url(#clip0_16_9)">
<rect width="1728" height="1117" fill="black"/>
<path d="M2401.5 579.166C2401.5 812.83 2219.89 1001.5 1996.78 1001.5C1773.67 1001.5 1592.06 812.83 1592.06 579.166C1592.06 345.503 1773.67 156.833 1996.78 156.833C2219.89 156.833 2401.5 345.503 2401.5 579.166Z" stroke="#1E63CB" stroke-opacity="0.61" stroke-width="21"/>
<g filter="url(#filter0_f_16_9)">
<path d="M2392.94 574.834C2392.94 804.396 2214.6 989.167 1996.22 989.167C1777.83 989.167 1599.5 804.396 1599.5 574.834C1599.5 345.272 1777.83 160.5 1996.22 160.5C2214.6 160.5 2392.94 345.272 2392.94 574.834Z" stroke="#1E63CB" stroke-width="37"/>
</g>
<path d="M1714.59 757.647L1718.85 760.72L1719.95 780.196L1712.06 767.274L1714.59 757.647Z" fill="white"/>
<path d="M1729.35 839.98L1728.38 853.051L1722.58 849.526L1721.47 844.535L1729.35 839.98Z" fill="white"/>
<path d="M1730.59 710.9L1720.25 709.531L1718.02 712.553L1712.11 706.93L1723.96 706.995L1730.59 710.9Z" fill="white"/>
<path d="M1622.01 743.229L1617.31 745.384L1618.51 748.208L1622.01 743.229Z" fill="white"/>
<path d="M1725.04 790.461L1726.85 786.269L1727.69 786.546L1725.68 782.516L1725.22 783.271L1723.43 782.235L1723.63 790.423L1725.04 790.461Z" fill="white"/>
<path d="M1725.44 703.215L1726.99 700.088L1724.91 698.741L1723.84 701.387L1725.44 703.215Z" fill="white"/>
<path d="M1582.07 766.827L1581.7 770.267C1581.14 770.387 1580.59 770.547 1580.04 770.744C1579.84 770.984 1582.07 766.827 1582.07 766.827Z" fill="white"/>
<path d="M1676.73 749.084L1676.33 741.755L1672.56 744.394L1673.9 747.288L1676.73 749.084Z" fill="white"/>
<path d="M1595.61 811.794L1594.56 804.739L1591.44 807.036L1595.61 811.794Z" fill="white"/>
<path d="M1664.8 807.504L1668 809.302L1667.97 810.987L1662.69 811.593L1664.8 807.504Z" fill="white"/>
<path d="M1700.02 688.457L1701.68 698.508L1695.24 699.729L1690.95 695.865L1696.11 688.963L1700.02 688.457Z" fill="white"/>
<path d="M1618.12 768.952L1620.58 783.03L1615.02 782.637L1613.89 776.338L1618.12 768.952Z" fill="white"/>
<path d="M1702.1 760.986L1706.98 763.372L1707.5 760.071L1699.72 759.19L1702.1 760.986Z" fill="white"/>
<path d="M1730.98 754.319L1730.24 747.367L1727.25 751.625L1726.96 755.444L1730.98 754.319Z" fill="white"/>
<path d="M1660.55 694.993L1664.06 696.172L1663.07 688.566L1660.55 694.993Z" fill="white"/>
<path d="M1622.28 695.787L1623.31 697.716L1622.15 700.5L1620.92 699.499L1622.28 695.787Z" fill="white"/>
<path d="M1534.98 777.265L1536.6 779.471L1537.26 776.549L1534.34 775.543L1534.98 777.265Z" fill="white"/>
<path d="M1715.67 730.23L1710.43 733.76L1709.24 730.489L1715.67 730.23Z" fill="white"/>
<path d="M1729.02 761.47L1731.14 766.98L1725.46 767.653L1726.83 761.636L1729.02 761.47Z" fill="white"/>
<path d="M1627.6 859.665L1624.92 863.58L1622.71 861.545L1627.6 859.665Z" fill="white"/>
<path d="M1732.55 796.708L1730.97 790.683L1725.94 789.019L1725.17 792.457L1732.55 796.708Z" fill="white"/>
<path d="M1643.61 715.384L1645.35 714.701L1644.96 712.842L1643.61 715.384Z" fill="white"/>
<path d="M1704.08 659.534L1701.05 659.492L1700.57 661.658L1702.16 662.832L1704.08 659.534Z" fill="white"/>
<path d="M1707.52 731.103L1712.88 723.514L1707.66 721.092L1707.81 725.6L1706.96 729.347L1707.52 731.103Z" fill="white"/>
<path d="M1595.44 727.746L1598.4 722.903L1594.95 720.829L1593.26 724.644L1595.44 727.746Z" fill="white"/>
<path d="M1660.8 641.53L1664.09 640.885L1662.92 637.855L1660.8 641.53Z" fill="white"/>
<path d="M1709.92 792.417L1708.65 794.306L1707.81 792.377L1709.92 792.417Z" fill="white"/>
<path d="M1538.55 817.837L1538.3 819.763L1537.14 819.725L1538.55 817.837Z" fill="white"/>
<path d="M1669.47 870.338L1670.62 872.474L1669.49 873.297L1669.47 870.338Z" fill="white"/>
<path d="M1702.09 743.853L1700.15 744.329L1699.59 743.158L1702.09 743.853Z" fill="white"/>
<path d="M1628.61 840.161L1627.01 840.811L1626.67 839.812L1627.21 838.609L1628.61 840.161Z" fill="white"/>
<path d="M1711.94 750.037L1711.49 750.689L1710.05 751.339L1709.41 750.168L1711.94 750.037Z" fill="white"/>
<path d="M1670.77 784.126L1672.29 782.341L1672.46 781.584L1670.27 780.856L1670.77 784.126Z" fill="white"/>
<path d="M1729.52 669.063L1726.81 672.53L1725.19 668.432L1729.52 669.063Z" fill="white"/>
<path d="M1690.62 886.598L1691.63 885.981L1691.72 884.089L1690.85 884.156L1690.62 886.598Z" fill="white"/>
<path d="M1723.25 731.73L1725.7 730.979L1723.96 729.77L1723.25 731.73Z" fill="white"/>
<path d="M1646.09 776.01L1646.58 781.722L1644.31 777.554L1645.16 774.838L1646.09 776.01Z" fill="white"/>
<path d="M1711.94 813.065L1708.78 817.391L1708.14 826.369L1704.66 822.816L1703.45 814.349L1709.41 803.803L1711.94 813.065Z" fill="white"/>
<path d="M1662 827.21L1669.1 831.667L1670.1 844.296L1660.4 836.048L1662 827.21Z" fill="white"/>
<path d="M1687.63 794.457L1694.4 804.142L1691.83 820.993L1688.88 809.907L1687.63 794.457Z" fill="white"/>
<path d="M1718.19 755.455L1715.71 745.678L1721.27 739.672L1718.19 755.455Z" fill="white"/>
<path d="M1717.64 718.401L1720.97 711.701L1716.19 705.53L1717.64 718.401Z" fill="white"/>
<path d="M1695.07 720.027L1691.41 712.896L1687.38 715.603L1695.07 720.027Z" fill="white"/>
<path d="M1664.15 733.982L1652.08 741.863L1657.13 743.493L1664.15 733.982Z" fill="white"/>
<path d="M1575.45 796.844L1571.33 813.038L1575.4 813.22L1575.45 796.844Z" fill="white"/>
<path d="M1694.81 734.166L1696.2 738.814L1693.3 740.664L1688.82 735.182L1694.81 734.166Z" fill="white"/>
<path d="M1691.48 761.818L1688.91 766.559L1684.75 767.27L1684.48 761.696L1691.48 761.818Z" fill="white"/>
<path d="M1649.44 784.861L1650.16 777.362L1653.53 777.715L1655.29 780.197L1653.43 784.699L1649.44 784.861Z" fill="white"/>
<path d="M1660 709.269L1656.4 713.491L1658.39 715.526L1660 709.269Z" fill="white"/>
<path d="M1724.79 820.048L1729.99 821.438L1730.79 823.917L1723.74 823.761L1724.79 820.048Z" fill="white"/>
<path d="M1596.47 837.531L1593.81 835.7L1592.76 837.039L1596.47 837.531Z" fill="white"/>
<path d="M1714.25 779.871L1712.62 777.699L1711.24 779.863L1714.25 779.871Z" fill="white"/>
<path d="M1712.97 741.267L1710.45 739.815L1709.71 741.361L1710.35 743.496L1712.97 741.267Z" fill="white"/>
<path d="M1700.74 786.166L1706.33 789.38L1701.23 792.738L1700.74 786.166Z" fill="white"/>
<path d="M1724.34 790.012L1730.35 800.074L1727.11 802.199L1724.34 790.012Z" fill="white"/>
<path d="M1695.48 779.581L1699.1 778.971L1695.75 772.46L1695.48 779.581Z" fill="white"/>
<path d="M1705.76 833.725L1709.63 835.593L1706.54 837.133L1705.76 833.725Z" fill="white"/>
<path d="M1726.54 869.078L1722.85 874.848L1720.69 872.434L1726.54 869.078Z" fill="white"/>
<path d="M1621.78 808.113L1622.85 806.43L1621.9 805.602L1620.8 806.115L1621.78 808.113Z" fill="white"/>
<path d="M1694.2 773.11L1696.66 766.476L1691.48 761.818L1690.09 764.395L1694.2 773.11Z" fill="white"/>
<path d="M1716.13 789.027L1716.49 790.955L1715.42 791.503L1716.13 789.027Z" fill="white"/>
<path d="M1726.42 811.245L1728.18 812.66L1727.39 813.965L1726.42 811.245Z" fill="white"/>
<path d="M1708.78 817.391L1712.2 820.806L1712.05 823.592L1709.84 822.107L1708.78 817.391Z" fill="white"/>
<path d="M1720.39 689.818L1721.62 691.404L1722.53 687.588L1723.43 686.214L1719.42 684.208L1720.39 689.818Z" fill="white"/>
<path d="M1729.69 722.045L1730.89 724.525L1727.21 724.412L1729.69 722.045Z" fill="white"/>
<path d="M1704.01 771.346L1705.47 774.825L1703.52 778.742L1702.65 775.299L1701.68 772.235L1704.01 771.346Z" fill="white"/>
<path d="M1715.48 420.05L1719.74 423.123L1720.84 442.599L1712.95 429.677L1715.48 420.05Z" fill="white"/>
<path d="M1730.24 502.383L1729.28 515.454L1723.47 511.929L1722.36 506.938L1730.24 502.383Z" fill="white"/>
<path d="M1731.48 373.303L1721.14 371.934L1718.91 374.956L1713 369.333L1724.86 369.398L1731.48 373.303Z" fill="white"/>
<path d="M1622.9 405.632L1618.2 407.787L1619.4 410.611L1622.9 405.632Z" fill="white"/>
<path d="M1725.93 452.864L1727.74 448.672L1728.58 448.949L1726.57 444.919L1726.12 445.675L1724.32 444.638L1724.52 452.826L1725.93 452.864Z" fill="white"/>
<path d="M1726.33 365.618L1727.88 362.491L1725.8 361.144L1724.73 363.79L1726.33 365.618Z" fill="white"/>
<path d="M1582.96 429.231L1582.59 432.67C1582.03 432.79 1581.48 432.95 1580.93 433.147C1580.73 433.388 1582.96 429.231 1582.96 429.231Z" fill="white"/>
<path d="M1677.62 411.487L1677.22 404.158L1673.45 406.797L1674.79 409.691L1677.62 411.487Z" fill="white"/>
<path d="M1596.5 474.198L1595.45 467.142L1592.33 469.439L1596.5 474.198Z" fill="white"/>
<path d="M1665.69 469.907L1668.89 471.705L1668.86 473.39L1663.58 473.996L1665.69 469.907Z" fill="white"/>
<path d="M1700.91 350.86L1702.57 360.911L1696.13 362.132L1691.84 358.268L1697 351.366L1700.91 350.86Z" fill="white"/>
<path d="M1619.01 431.356L1621.47 445.433L1615.91 445.04L1614.78 438.741L1619.01 431.356Z" fill="white"/>
<path d="M1702.99 423.389L1707.88 425.776L1708.39 422.474L1700.61 421.594L1702.99 423.389Z" fill="white"/>
<path d="M1731.87 416.722L1731.13 409.77L1728.14 414.029L1727.85 417.847L1731.87 416.722Z" fill="white"/>
<path d="M1661.44 357.396L1664.95 358.575L1663.96 350.969L1661.44 357.396Z" fill="white"/>
<path d="M1623.17 358.19L1624.2 360.119L1623.04 362.903L1621.81 361.902L1623.17 358.19Z" fill="white"/>
<path d="M1535.87 439.668L1537.49 441.874L1538.15 438.952L1535.23 437.946L1535.87 439.668Z" fill="white"/>
<path d="M1716.56 392.633L1711.33 396.163L1710.13 392.892L1716.56 392.633Z" fill="white"/>
<path d="M1729.91 423.873L1732.03 429.383L1726.35 430.056L1727.72 424.039L1729.91 423.873Z" fill="white"/>
<path d="M1628.49 522.068L1625.81 525.983L1623.6 523.948L1628.49 522.068Z" fill="white"/>
<path d="M1733.44 459.111L1731.86 453.087L1726.83 451.422L1726.06 454.86L1733.44 459.111Z" fill="white"/>
<path d="M1644.5 377.787L1646.24 377.104L1645.85 375.245L1644.5 377.787Z" fill="white"/>
<path d="M1704.97 321.938L1701.94 321.895L1701.46 324.061L1703.05 325.235L1704.97 321.938Z" fill="white"/>
<path d="M1708.41 393.506L1713.77 385.917L1708.55 383.495L1708.71 388.003L1707.85 391.75L1708.41 393.506Z" fill="white"/>
<path d="M1596.33 390.149L1599.29 385.306L1595.84 383.232L1594.15 387.047L1596.33 390.149Z" fill="white"/>
<path d="M1661.69 303.933L1664.98 303.289L1663.81 300.258L1661.69 303.933Z" fill="white"/>
<path d="M1710.81 454.82L1709.54 456.709L1708.7 454.78L1710.81 454.82Z" fill="white"/>
<path d="M1539.44 480.24L1539.19 482.166L1538.03 482.128L1539.44 480.24Z" fill="white"/>
<path d="M1670.36 532.741L1671.51 534.877L1670.38 535.7L1670.36 532.741Z" fill="white"/>
<path d="M1702.98 406.256L1701.04 406.732L1700.48 405.561L1702.98 406.256Z" fill="white"/>
<path d="M1629.5 502.564L1627.9 503.214L1627.56 502.215L1628.1 501.012L1629.5 502.564Z" fill="white"/>
<path d="M1712.83 412.44L1712.38 413.092L1710.94 413.742L1710.3 412.571L1712.83 412.44Z" fill="white"/>
<path d="M1671.66 446.529L1673.18 444.744L1673.35 443.987L1671.16 443.259L1671.66 446.529Z" fill="white"/>
<path d="M1730.41 331.466L1727.7 334.934L1726.08 330.835L1730.41 331.466Z" fill="white"/>
<path d="M1691.51 549.001L1692.52 548.384L1692.61 546.492L1691.74 546.559L1691.51 549.001Z" fill="white"/>
<path d="M1724.14 394.133L1726.59 393.382L1724.85 392.174L1724.14 394.133Z" fill="white"/>
<path d="M1646.98 438.413L1647.47 444.125L1645.2 439.957L1646.05 437.241L1646.98 438.413Z" fill="white"/>
<path d="M1712.83 475.468L1709.67 479.794L1709.03 488.772L1705.55 485.219L1704.34 476.753L1710.3 466.206L1712.83 475.468Z" fill="white"/>
<path d="M1662.89 489.613L1669.99 494.07L1670.99 506.699L1661.29 498.451L1662.89 489.613Z" fill="white"/>
<path d="M1688.52 456.86L1695.29 466.545L1692.72 483.396L1689.77 472.31L1688.52 456.86Z" fill="white"/>
<path d="M1719.08 417.858L1716.6 408.081L1722.16 402.075L1719.08 417.858Z" fill="white"/>
<path d="M1718.53 380.804L1721.86 374.104L1717.08 367.933L1718.53 380.804Z" fill="white"/>
<path d="M1695.96 382.43L1692.3 375.299L1688.28 378.006L1695.96 382.43Z" fill="white"/>
<path d="M1665.04 396.385L1652.97 404.266L1658.02 405.896L1665.04 396.385Z" fill="white"/>
<path d="M1576.34 459.247L1572.22 475.441L1576.3 475.624L1576.34 459.247Z" fill="white"/>
<path d="M1695.7 396.569L1697.09 401.217L1694.2 403.068L1689.71 397.586L1695.7 396.569Z" fill="white"/>
<path d="M1692.37 424.221L1689.8 428.962L1685.64 429.673L1685.37 424.099L1692.37 424.221Z" fill="white"/>
<path d="M1650.33 447.264L1651.05 439.766L1654.42 440.118L1656.18 442.6L1654.32 447.102L1650.33 447.264Z" fill="white"/>
<path d="M1660.9 371.672L1657.29 375.895L1659.28 377.93L1660.9 371.672Z" fill="white"/>
<path d="M1725.68 482.451L1730.88 483.841L1731.68 486.32L1724.63 486.164L1725.68 482.451Z" fill="white"/>
<path d="M1597.36 499.934L1594.7 498.103L1593.65 499.442L1597.36 499.934Z" fill="white"/>
<path d="M1715.14 442.274L1713.51 440.102L1712.13 442.266L1715.14 442.274Z" fill="white"/>
<path d="M1713.86 403.67L1711.34 402.218L1710.6 403.764L1711.24 405.899L1713.86 403.67Z" fill="white"/>
<path d="M1701.63 448.569L1707.22 451.783L1702.12 455.141L1701.63 448.569Z" fill="white"/>
<path d="M1725.23 452.416L1731.24 462.477L1728 464.602L1725.23 452.416Z" fill="white"/>
<path d="M1696.37 441.984L1700 441.374L1696.64 434.863L1696.37 441.984Z" fill="white"/>
<path d="M1706.65 496.128L1710.52 497.996L1707.43 499.536L1706.65 496.128Z" fill="white"/>
<path d="M1727.43 531.481L1723.74 537.251L1721.58 534.837L1727.43 531.481Z" fill="white"/>
<path d="M1622.67 470.516L1623.74 468.834L1622.79 468.005L1621.69 468.518L1622.67 470.516Z" fill="white"/>
<path d="M1695.09 435.513L1697.55 428.879L1692.37 424.221L1690.98 426.798L1695.09 435.513Z" fill="white"/>
<path d="M1717.02 451.43L1717.38 453.358L1716.32 453.906L1717.02 451.43Z" fill="white"/>
<path d="M1727.31 473.648L1729.07 475.063L1728.28 476.369L1727.31 473.648Z" fill="white"/>
<path d="M1709.67 479.794L1713.09 483.209L1712.94 485.995L1710.73 484.51L1709.67 479.794Z" fill="white"/>
<path d="M1721.28 352.221L1722.51 353.807L1723.42 349.991L1724.32 348.617L1720.31 346.611L1721.28 352.221Z" fill="white"/>
<path d="M1704.9 433.749L1706.36 437.228L1704.41 441.145L1703.54 437.702L1702.57 434.638L1704.9 433.749Z" fill="white"/>
<path d="M1716.88 599.188L1721.14 602.261L1722.24 621.737L1714.35 608.815L1716.88 599.188Z" fill="white"/>
<path d="M1731.64 681.521L1730.68 694.592L1724.87 691.067L1723.76 686.076L1731.64 681.521Z" fill="white"/>
<path d="M1732.88 552.441L1722.54 551.072L1720.31 554.094L1714.4 548.471L1726.26 548.536L1732.88 552.441Z" fill="white"/>
<path d="M1624.3 584.77L1619.61 586.925L1620.81 589.749L1624.3 584.77Z" fill="white"/>
<path d="M1727.33 632.002L1729.14 627.81L1729.98 628.087L1727.97 624.057L1727.52 624.812L1725.72 623.776L1725.93 631.964L1727.33 632.002Z" fill="white"/>
<path d="M1727.73 544.756L1729.28 541.629L1727.21 540.282L1726.13 542.928L1727.73 544.756Z" fill="white"/>
<path d="M1584.37 608.368L1583.99 611.808C1583.43 611.928 1582.88 612.088 1582.33 612.285C1582.14 612.525 1584.37 608.368 1584.37 608.368Z" fill="white"/>
<path d="M1679.03 590.625L1678.62 583.296L1674.85 585.935L1676.19 588.829L1679.03 590.625Z" fill="white"/>
<path d="M1597.91 653.335L1596.86 646.28L1593.73 648.577L1597.91 653.335Z" fill="white"/>
<path d="M1667.1 649.045L1670.3 650.843L1670.26 652.528L1664.98 653.134L1667.1 649.045Z" fill="white"/>
<path d="M1702.31 529.998L1703.97 540.049L1697.53 541.27L1693.24 537.406L1698.4 530.504L1702.31 529.998Z" fill="white"/>
<path d="M1620.41 610.493L1622.88 624.571L1617.31 624.178L1616.18 617.879L1620.41 610.493Z" fill="white"/>
<path d="M1704.4 602.527L1709.28 604.913L1709.79 601.612L1702.01 600.731L1704.4 602.527Z" fill="white"/>
<path d="M1662.84 536.534L1666.35 537.713L1665.36 530.107L1662.84 536.534Z" fill="white"/>
<path d="M1624.57 537.328L1625.6 539.257L1624.44 542.041L1623.21 541.04L1624.57 537.328Z" fill="white"/>
<path d="M1537.27 618.806L1538.9 621.012L1539.55 618.09L1536.63 617.084L1537.27 618.806Z" fill="white"/>
<path d="M1717.96 571.771L1712.73 575.301L1711.53 572.03L1717.96 571.771Z" fill="white"/>
<path d="M1731.31 603.011L1733.43 608.521L1727.76 609.194L1729.12 603.177L1731.31 603.011Z" fill="white"/>
<path d="M1629.9 701.206L1627.22 705.121L1625 703.086L1629.9 701.206Z" fill="white"/>
<path d="M1734.85 638.249L1733.26 632.224L1728.23 630.56L1727.47 633.998L1734.85 638.249Z" fill="white"/>
<path d="M1645.9 556.925L1647.64 556.242L1647.26 554.383L1645.9 556.925Z" fill="white"/>
<path d="M1706.38 501.075L1703.34 501.033L1702.86 503.199L1704.46 504.373L1706.38 501.075Z" fill="white"/>
<path d="M1709.81 572.644L1715.17 565.055L1709.95 562.633L1710.11 567.141L1709.26 570.888L1709.81 572.644Z" fill="white"/>
<path d="M1597.73 569.287L1600.7 564.444L1597.25 562.37L1595.55 566.185L1597.73 569.287Z" fill="white"/>
<path d="M1663.1 483.071L1666.39 482.426L1665.21 479.396L1663.1 483.071Z" fill="white"/>
<path d="M1712.21 633.958L1710.94 635.847L1710.1 633.918L1712.21 633.958Z" fill="white"/>
<path d="M1540.85 659.378L1540.59 661.304L1539.44 661.266L1540.85 659.378Z" fill="white"/>
<path d="M1671.76 711.879L1672.91 714.015L1671.78 714.838L1671.76 711.879Z" fill="white"/>
<path d="M1704.39 585.394L1702.45 585.87L1701.89 584.699L1704.39 585.394Z" fill="white"/>
<path d="M1630.9 681.702L1629.3 682.352L1628.97 681.353L1629.5 680.15L1630.9 681.702Z" fill="white"/>
<path d="M1714.23 591.578L1713.78 592.23L1712.35 592.88L1711.7 591.709L1714.23 591.578Z" fill="white"/>
<path d="M1673.06 625.667L1674.58 623.882L1674.75 623.125L1672.56 622.397L1673.06 625.667Z" fill="white"/>
<path d="M1731.81 510.604L1729.1 514.071L1727.48 509.973L1731.81 510.604Z" fill="white"/>
<path d="M1692.91 728.139L1693.92 727.522L1694.01 725.63L1693.14 725.697L1692.91 728.139Z" fill="white"/>
<path d="M1725.55 573.271L1727.99 572.52L1726.26 571.311L1725.55 573.271Z" fill="white"/>
<path d="M1648.38 617.551L1648.87 623.263L1646.61 619.095L1647.46 616.379L1648.38 617.551Z" fill="white"/>
<path d="M1714.23 654.606L1711.07 658.932L1710.43 667.91L1706.96 664.357L1705.74 655.89L1711.7 645.344L1714.23 654.606Z" fill="white"/>
<path d="M1664.29 668.751L1671.39 673.208L1672.4 685.837L1662.69 677.589L1664.29 668.751Z" fill="white"/>
<path d="M1689.92 635.998L1696.69 645.683L1694.12 662.534L1691.17 651.448L1689.92 635.998Z" fill="white"/>
<path d="M1720.48 596.996L1718.01 587.219L1723.56 581.213L1720.48 596.996Z" fill="white"/>
<path d="M1719.93 559.942L1723.27 553.242L1718.48 547.071L1719.93 559.942Z" fill="white"/>
<path d="M1697.37 561.568L1693.7 554.437L1689.68 557.144L1697.37 561.568Z" fill="white"/>
<path d="M1666.45 575.523L1654.37 583.404L1659.43 585.034L1666.45 575.523Z" fill="white"/>
<path d="M1577.74 638.385L1573.62 654.578L1577.7 654.761L1577.74 638.385Z" fill="white"/>
<path d="M1697.1 575.707L1698.5 580.355L1695.6 582.205L1691.12 576.724L1697.1 575.707Z" fill="white"/>
<path d="M1693.77 603.359L1691.2 608.1L1687.04 608.811L1686.78 603.237L1693.77 603.359Z" fill="white"/>
<path d="M1651.73 626.402L1652.45 618.903L1655.82 619.256L1657.59 621.738L1655.72 626.24L1651.73 626.402Z" fill="white"/>
<path d="M1662.3 550.81L1658.69 555.032L1660.68 557.067L1662.3 550.81Z" fill="white"/>
<path d="M1727.08 661.589L1732.28 662.979L1733.09 665.458L1726.04 665.302L1727.08 661.589Z" fill="white"/>
<path d="M1598.76 679.072L1596.1 677.241L1595.06 678.58L1598.76 679.072Z" fill="white"/>
<path d="M1716.54 621.412L1714.92 619.24L1713.53 621.404L1716.54 621.412Z" fill="white"/>
<path d="M1715.27 582.808L1712.74 581.356L1712.01 582.902L1712.65 585.037L1715.27 582.808Z" fill="white"/>
<path d="M1703.04 627.707L1708.62 630.921L1703.52 634.279L1703.04 627.707Z" fill="white"/>
<path d="M1726.63 631.554L1732.64 641.615L1729.41 643.74L1726.63 631.554Z" fill="white"/>
<path d="M1697.77 621.122L1701.4 620.512L1698.04 614.001L1697.77 621.122Z" fill="white"/>
<path d="M1708.05 675.266L1711.93 677.134L1708.83 678.674L1708.05 675.266Z" fill="white"/>
<path d="M1728.84 710.619L1725.14 716.389L1722.98 713.975L1728.84 710.619Z" fill="white"/>
<path d="M1624.08 649.654L1625.15 647.971L1624.19 647.143L1623.1 647.656L1624.08 649.654Z" fill="white"/>
<path d="M1696.5 614.651L1698.96 608.017L1693.77 603.359L1692.39 605.936L1696.5 614.651Z" fill="white"/>
<path d="M1718.43 630.568L1718.79 632.496L1717.72 633.044L1718.43 630.568Z" fill="white"/>
<path d="M1711.07 658.932L1714.49 662.347L1714.35 665.133L1712.13 663.648L1711.07 658.932Z" fill="white"/>
<path d="M1722.68 531.359L1723.91 532.945L1724.82 529.129L1725.72 527.755L1721.71 525.749L1722.68 531.359Z" fill="white"/>
<path d="M1706.31 612.887L1707.76 616.366L1705.81 620.283L1704.95 616.84L1703.97 613.776L1706.31 612.887Z" fill="white"/>
</g>
<defs>
<filter id="filter0_f_16_9" x="1501" y="62" width="990.437" height="1025.67" filterUnits="userSpaceOnUse" color-interpolation-filters="sRGB">
<feFlood flood-opacity="0" result="BackgroundImageFix"/>
<feBlend mode="normal" in="SourceGraphic" in2="BackgroundImageFix" result="shape"/>
<feGaussianBlur stdDeviation="40" result="effect1_foregroundBlur_16_9"/>
</filter>
<clipPath id="clip0_16_9">
<rect width="1728" height="1117" fill="white"/>
</clipPath>
</defs>
</svg>
