<svg width="290" height="287" viewBox="0 0 290 287" fill="none" xmlns="http://www.w3.org/2000/svg">
<ellipse cx="145.29" cy="137.5" rx="64.29" ry="62.5" fill="black"/>
<g filter="url(#filter0_f_15_8413)">
<mask id="path-2-inside-1_15_8413" fill="white">
<ellipse cx="145" cy="143.188" rx="65" ry="63.1882"/>
</mask>
<path d="M130 143.188C130 131.786 138.863 126.376 145 126.376V286.376C222.934 286.376 290 224.386 290 143.188H130ZM145 126.376C151.137 126.376 160 131.786 160 143.188H0C0 224.386 67.0657 286.376 145 286.376V126.376ZM160 143.188C160 154.59 151.137 160 145 160V0C67.0657 0 0 61.9907 0 143.188H160ZM145 160C138.863 160 130 154.59 130 143.188H290C290 61.9907 222.934 0 145 0V160Z" fill="black" mask="url(#path-2-inside-1_15_8413)"/>
</g>
<path d="M135.875 130.375C135.875 128.812 135.706 127.576 135.367 126.664C135.029 125.753 134.469 125.062 133.688 124.594C132.906 124.125 131.878 123.826 130.602 123.695C129.326 123.565 127.75 123.5 125.875 123.5H115.836C114.169 123.5 112.763 123.552 111.617 123.656C110.484 123.747 109.547 123.943 108.805 124.242C108.062 124.542 107.49 124.971 107.086 125.531C106.682 126.091 106.389 126.833 106.207 127.758C106.025 128.682 105.921 129.822 105.895 131.176C105.868 132.517 105.855 134.125 105.855 136C105.855 137.875 105.868 139.49 105.895 140.844C105.934 142.185 106.044 143.318 106.227 144.242C106.409 145.167 106.695 145.909 107.086 146.469C107.49 147.029 108.062 147.458 108.805 147.758C109.547 148.057 110.484 148.259 111.617 148.363C112.763 148.454 114.169 148.5 115.836 148.5H125.895C127.353 148.5 128.609 148.461 129.664 148.383C130.719 148.305 131.617 148.161 132.359 147.953C133.102 147.745 133.701 147.458 134.156 147.094C134.612 146.729 134.964 146.273 135.211 145.727C135.471 145.167 135.647 144.503 135.738 143.734C135.829 142.953 135.875 142.042 135.875 141V139.125H120.836V136H139.625V141C139.625 142.25 139.547 143.383 139.391 144.398C139.234 145.401 138.954 146.299 138.551 147.094C138.16 147.875 137.633 148.552 136.969 149.125C136.305 149.698 135.465 150.173 134.449 150.551C133.434 150.915 132.223 151.182 130.816 151.352C129.41 151.534 127.77 151.625 125.895 151.625H115.836C113.544 151.625 111.611 151.482 110.035 151.195C108.473 150.922 107.184 150.505 106.168 149.945C105.152 149.372 104.365 148.656 103.805 147.797C103.258 146.938 102.854 145.928 102.594 144.77C102.346 143.611 102.203 142.302 102.164 140.844C102.125 139.385 102.105 137.771 102.105 136C102.105 134.229 102.125 132.615 102.164 131.156C102.203 129.698 102.346 128.389 102.594 127.23C102.854 126.072 103.258 125.062 103.805 124.203C104.365 123.344 105.152 122.634 106.168 122.074C107.184 121.501 108.473 121.078 110.035 120.805C111.611 120.518 113.544 120.375 115.836 120.375H125.875C127.75 120.375 129.391 120.466 130.797 120.648C132.203 120.818 133.414 121.085 134.43 121.449C135.445 121.801 136.285 122.25 136.949 122.797C137.626 123.344 138.16 123.988 138.551 124.73C138.954 125.473 139.234 126.312 139.391 127.25C139.547 128.188 139.625 129.229 139.625 130.375H135.875ZM148.395 151H144.645V147.25H148.395V151ZM154.645 151V121H183.395V124.125H158.395V134.125H182.145V137.25H158.395V151H154.645ZM190.895 151H187.145V147.25H190.895V151Z" fill="white"/>
<defs>
<filter id="filter0_f_15_8413" x="0" y="0" width="290" height="286.376" filterUnits="userSpaceOnUse" color-interpolation-filters="sRGB">
<feFlood flood-opacity="0" result="BackgroundImageFix"/>
<feBlend mode="normal" in="SourceGraphic" in2="BackgroundImageFix" result="shape"/>
<feGaussianBlur stdDeviation="40" result="effect1_foregroundBlur_15_8413"/>
</filter>
</defs>
</svg>
